<svg xmlns="http://www.w3.org/2000/svg" viewBox="0 0 56 56"><title>account</title><path d="M30.51,56h-5a3,3,0,0,1-2.87-2.14L21.47,50A22.79,22.79,0,0,1,17,48.2L13.52,50.1A3,3,0,0,1,10,49.58L6.42,46a3,3,0,0,1-.52-3.54L7.8,39A22.79,22.79,0,0,1,6,34.53L2.14,33.39A3,3,0,0,1,0,30.51v-5a3,3,0,0,1,2.14-2.87L6,21.47A22.79,22.79,0,0,1,7.8,17L5.9,13.52A3,3,0,0,1,6.42,10L10,6.42a3,3,0,0,1,3.54-.52L17,7.8A22.88,22.88,0,0,1,21.47,6l1.15-3.83A3,3,0,0,1,25.49,0h5a3,3,0,0,1,2.87,2.14L34.53,6A22.88,22.88,0,0,1,39,7.8L42.48,5.9A3,3,0,0,1,46,6.42L49.58,10a3,3,0,0,1,.52,3.54L48.2,17A22.79,22.79,0,0,1,50,21.47l3.83,1.15A3,3,0,0,1,56,25.49v5a3,3,0,0,1-2.14,2.87L50,34.53A22.79,22.79,0,0,1,48.2,39l1.89,3.52A3,3,0,0,1,49.58,46L46,49.58a3,3,0,0,1-3.54.52L39,48.2A22.79,22.79,0,0,1,34.53,50l-1.15,3.83A3,3,0,0,1,30.51,56ZM17.06,45.92l.48.28a20.86,20.86,0,0,0,5,2.06l.54.15,1.47,4.89a1,1,0,0,0,1,.71h5a1,1,0,0,0,1-.71l1.47-4.89.54-.15a20.86,20.86,0,0,0,5-2.06l.48-.28,4.49,2.42a1,1,0,0,0,1.18-.17l3.55-3.55a1,1,0,0,0,.17-1.18l-2.42-4.49.28-.48a20.86,20.86,0,0,0,2.06-5l.15-.54,4.89-1.47a1,1,0,0,0,.71-1v-5a1,1,0,0,0-.71-1L48.4,23.06l-.15-.54a20.86,20.86,0,0,0-2.06-5l-.28-.48,2.42-4.49a1,1,0,0,0-.17-1.18L44.61,7.84a1,1,0,0,0-1.18-.17l-4.49,2.42-.48-.28a20.86,20.86,0,0,0-5-2.06l-.54-.15L31.47,2.71a1,1,0,0,0-1-.71h-5a1,1,0,0,0-1,.71L23.06,7.6l-.54.15a20.86,20.86,0,0,0-5,2.06l-.48.28L12.57,7.67a1,1,0,0,0-1.18.17L7.84,11.39a1,1,0,0,0-.17,1.18l2.42,4.49-.28.48a20.86,20.86,0,0,0-2.06,5l-.15.54L2.71,24.53a1,1,0,0,0-.71,1v5a1,1,0,0,0,.71,1L7.6,32.94l.15.54a20.86,20.86,0,0,0,2.06,5l.28.48L7.67,43.43a1,1,0,0,0,.17,1.18l3.55,3.55a1,1,0,0,0,1.18.17ZM28,38A10,10,0,1,1,38,28,10,10,0,0,1,28,38Zm0-18a8,8,0,1,0,8,8A8,8,0,0,0,28,20Z"/></svg>