<svg version="1.1" xmlns="http://www.w3.org/2000/svg" xmlns:xlink="http://www.w3.org/1999/xlink" x="0px" y="0px"
	 viewBox="0 0 250 279.1" xml:space="preserve">
	 <defs>
	 	 <mask id="mask" x="-10" y="-10" width="250" height="186.3">
		 	<path fill="#FFF" d="M171.9,40.1h-13V0H0.4v186.3h58.3h147.7v0h44V0h-51.8v0h-26.7V40.1 M184.7,37.9h13.6l0,16.1h-13.6V39.9"/>
		 </mask>
		</defs>
	<path fill="none" id="path" mask="url(#mask)" stroke="#FFFFFF" stroke-width="12.87" stroke-miterlimit="10" d="M184.4,46.6c-14.2,0-5.7,0-85.6,0
	c-16.3,0-26.7,13.3-26.7,26.7V113c0,14.7,12,26.7,26.7,26.7h52.5c14.7,0,26.7-12,26.7-26.7l0-106.5l-20.2,0H33.1
	c-14.7,0-26.7,12-26.7,26.7v120c0,14.7,12,26.7,26.7,26.7h183.8c14.7,0,26.7-12,26.7-26.7V73.3c0-14.7-12-26.7-26.7-26.7l-18.5,0
	L184.4,46.6z"/>
	<path fill="#FFFFFF" d="M43.3,274.2c-4,1.8-8.4,2.7-13.2,2.7c-7.2,0-13-2.2-17.3-6.6c-4.3-4.4-6.5-10.2-6.5-17.5
			c0-7.3,2.2-13.1,6.5-17.5c4.3-4.4,10-6.6,17.1-6.6c4.6,0,9,0.8,13.2,2.4l-1.8,5.7c-4.2-1.4-7.9-2.2-11.3-2.2c-5.1,0-9,1.6-12,4.9
			c-3,3.3-4.4,7.7-4.4,13.3c0,5.1,1.5,9.4,4.6,12.9c3.1,3.5,7,5.2,11.9,5.2c3.9,0,7.9-0.7,12-2.2L43.3,274.2z"/>
	<path fill="#FFFFFF" d="M88.9,275.7H70.1v-56.2h-12v-5.9H77v56.2h11.9V275.7z"/>
	<path fill="#FFFFFF" d="M124.1,275.7h-6.9v-39.9h-13.5v-5.9h20.4V275.7z M120.7,212.5c1.3,0,2.4,0.5,3.3,1.4
			c0.9,0.9,1.4,2,1.4,3.3c0,1.4-0.4,2.5-1.3,3.4c-0.9,0.9-2,1.4-3.3,1.4c-1.2,0-2.3-0.5-3.2-1.4c-0.9-1-1.4-2.1-1.4-3.3
			c0-1.3,0.5-2.4,1.4-3.3C118.4,213,119.5,212.5,120.7,212.5z"/>
	<path fill="#FFFFFF" d="M190.5,275.7h-9L162,252.9l-4.5,3.9v18.9h-6.9v-62.1h6.9v35.6l21.5-19.4h8.8l-20.9,18.8L190.5,275.7z"/>
	<path fill="#FFFFFF" d="M243.6,275.7h-6.9v-6.6c-1.4,2.3-3.4,4.1-6.1,5.6c-2.6,1.5-5.4,2.2-8.3,2.2c-5.3,0-9.4-2.3-12.5-7
			c-3.1-4.7-4.6-10.6-4.6-17.8c0-6.7,1.6-12.3,4.8-16.7c3.2-4.4,7.4-6.6,12.7-6.6c5.8,0,10.4,2.3,14,7v-22.2h6.9V275.7z
			 M236.7,261.7v-19.1c-3.3-5.3-7.3-7.9-11.9-7.9c-3.8,0-6.8,1.7-9,5c-2.2,3.4-3.3,7.6-3.3,12.7c0,5.3,1,9.7,3.1,13.1
			c2.1,3.4,4.9,5.2,8.5,5.2c1.7,0,3.5-0.5,5.2-1.4c1.8-0.9,3.4-2.3,5-4.2C235.9,263.2,236.7,262.1,236.7,261.7z"/>
</svg>
