<svg xmlns="http://www.w3.org/2000/svg" viewBox="0 0 50 37.5"><title>logo</title><path d="M43.38,7.5H40v2.57h3.38a4.05,4.05,0,0,1,4,4V30.88a4.05,4.05,0,0,1-4,4H6.62a4.05,4.05,0,0,1-4-4V6.62a4.05,4.05,0,0,1,4-4H32.5V0H6.62A6.63,6.63,0,0,0,0,6.62V30.88A6.63,6.63,0,0,0,6.62,37.5H43.38A6.63,6.63,0,0,0,50,30.88V14.12A6.63,6.63,0,0,0,43.38,7.5Z"/><path d="M34.93,0V7.5H19.12a6.63,6.63,0,0,0-6.62,6.62v9.25A6.63,6.63,0,0,0,19.12,30H30.88a6.63,6.63,0,0,0,6.62-6.62V0ZM30.88,27.43H19.12a4.05,4.05,0,0,1-4.05-4V14.12a4.05,4.05,0,0,1,4.05-4.05h15.8v13.3A4.05,4.05,0,0,1,30.88,27.43Z"/><circle cx="43.75" cy="2.5" r="2.5"/></svg>