<?xml version="1.0" encoding="utf-8"?>
<!-- Generator: Adobe Illustrator 18.1.1, SVG Export Plug-In . SVG Version: 6.00 Build 0)  -->
<svg version="1.1" id="Layer_1" xmlns="http://www.w3.org/2000/svg" xmlns:xlink="http://www.w3.org/1999/xlink" x="0px" y="0px"
	 viewBox="0 0 30 30" enable-background="new 0 0 30 30" xml:space="preserve">
<g>
	<polygon points="21.9,0 21.9,1.8 28.2,1.8 28.2,8.1 30,8.1 30,0 	"/>
	<polygon points="0,8.1 1.8,8.1 1.8,1.8 8.1,1.8 8.1,0 0,0 	"/>
	<polygon points="1.8,21.9 0,21.9 0,30 8.1,30 8.1,28.2 1.8,28.2 	"/>
	<polygon points="28.2,28.2 21.9,28.2 21.9,30 30,30 30,21.9 28.2,21.9 	"/>
	<path d="M21.2,8.8c-0.3-0.3-0.8-0.3-1.2,0l-5,5l-5-5c-0.3-0.3-0.8-0.3-1.2,0c-0.3,0.3-0.3,0.8,0,1.2l5,5l-5,5
		c-0.3,0.3-0.3,0.8,0,1.2c0.2,0.2,0.4,0.2,0.6,0.2s0.4-0.1,0.6-0.2l5-5l5,5c0.2,0.2,0.4,0.2,0.6,0.2s0.4-0.1,0.6-0.2
		c0.3-0.3,0.3-0.8,0-1.2l-5-5l5-5C21.5,9.6,21.5,9.1,21.2,8.8z"/>
</g>
</svg>
