<?xml version="1.0" encoding="utf-8"?>
<!-- Generator: Adobe Illustrator 21.1.0, SVG Export Plug-In . SVG Version: 6.00 Build 0)  -->
<svg version="1.1" id="Layer_1" xmlns="http://www.w3.org/2000/svg" xmlns:xlink="http://www.w3.org/1999/xlink" x="0px" y="0px"
	 viewBox="0 0 41 45" style="enable-background:new 0 0 41 45;" xml:space="preserve">
<title>hi</title>
<g>
	<path d="M20.6,44.2c-1.5,0-3.1-0.4-4.5-1.2l-9.2-5.3c-3.2-1.8-5.2-5.1-5.5-8.8L0.5,15.1c-0.1-1.9,1.1-3.7,3-4.2l0.2,0
		c2.1-0.5,4.3,0.8,4.9,2.9l1.5,5.7l9.3-16.1c1.1-1.9,3.6-2.6,5.5-1.5l0,0c0.6,0.4,1.1,0.9,1.5,1.4l0.3-0.5c1.1-1.9,3.6-2.6,5.5-1.5
		c1.5,0.9,2.2,2.6,1.9,4.2c0.8-0.1,1.6,0.1,2.3,0.5c1.9,1.1,2.6,3.6,1.5,5.5l-1.3,2.3c0.7,0,1.4,0.2,2,0.5c0.9,0.5,1.6,1.4,1.9,2.4
		c0.3,1,0.1,2.1-0.4,3L28.4,39.7C26.8,42.6,23.7,44.2,20.6,44.2z M4.7,12.7c-0.2,0-0.3,0-0.5,0.1l-0.2,0c-1,0.2-1.6,1.1-1.5,2.1
		l0.9,13.8c0.2,3,1.9,5.7,4.5,7.2l9.2,5.3c1.6,0.9,3.5,1.2,5.3,0.7c1.8-0.5,3.3-1.6,4.3-3.3l11.5-19.9c0.3-0.5,0.3-1,0.2-1.5
		s-0.5-0.9-0.9-1.2c-1-0.6-2.2-0.2-2.7,0.7l-4.5,7.7l-1.7-1l7.5-13c0.6-1,0.2-2.2-0.7-2.7c-0.5-0.3-1-0.3-1.5-0.2
		c-0.5,0.1-0.9,0.4-1.1,0.8L25,21.5l-1.7-1l0,0l7.5-13c0-0.1,0.1-0.1,0.1-0.2l0.9-1.5c0.3-0.5,0.3-1,0.2-1.5S31.5,3.3,31.1,3
		c-1-0.5-2.2-0.2-2.7,0.7l-1.8,3.2c0,0.1-0.1,0.2-0.1,0.3l-6.5,11.3l-1.7-1L24.7,6c0.4-0.9,0-2-0.9-2.5l0,0c-1-0.6-2.2-0.2-2.7,0.7
		L9.4,24.6L6.7,14.3C6.4,13.3,5.6,12.7,4.7,12.7z"/>
</g>
</svg>
