<svg xmlns="http://www.w3.org/2000/svg" viewBox="0 0 48 42"><title>preferences</title><rect x="43" y="4" width="5" height="2"/><rect y="4" width="32" height="2"/><rect x="22" y="20" width="26" height="2"/><rect y="20" width="11" height="2"/><rect x="35" y="36" width="13" height="2"/><rect y="36" width="24" height="2"/><path d="M41,10H37a3,3,0,0,1-3-3V3a3,3,0,0,1,3-3h4a3,3,0,0,1,3,3V7A3,3,0,0,1,41,10ZM37,2a1,1,0,0,0-1,1V7a1,1,0,0,0,1,1h4a1,1,0,0,0,1-1V3a1,1,0,0,0-1-1Z"/><path d="M17,26H13a3,3,0,0,1-3-3V19a3,3,0,0,1,3-3h4a3,3,0,0,1,3,3v4A3,3,0,0,1,17,26Zm-4-8a1,1,0,0,0-1,1v4a1,1,0,0,0,1,1h4a1,1,0,0,0,1-1V19a1,1,0,0,0-1-1Z"/><path d="M33,42H29a3,3,0,0,1-3-3V35a3,3,0,0,1,3-3h4a3,3,0,0,1,3,3v4A3,3,0,0,1,33,42Zm-4-8a1,1,0,0,0-1,1v4a1,1,0,0,0,1,1h4a1,1,0,0,0,1-1V35a1,1,0,0,0-1-1Z"/></svg>