<?xml version="1.0" encoding="utf-8"?>
<!-- Generator: Adobe Illustrator 21.0.2, SVG Export Plug-In . SVG Version: 6.00 Build 0)  -->
<svg version="1.1" id="Layer_1" xmlns="http://www.w3.org/2000/svg" xmlns:xlink="http://www.w3.org/1999/xlink" x="0px" y="0px"
	 viewBox="0 0 32 38" style="enable-background:new 0 0 32 38;" xml:space="preserve">
<title>profile</title>
<path d="M27,38H5c-2.8,0-5-2.2-5-5v-4c0-5,4-9,9-9h14c5,0,9,4,9,9v4C32,35.8,29.8,38,27,38z M9,22c-3.9,0-7,3.1-7,7l0,0v4
	c0,1.7,1.3,3,3,3h22c1.7,0,3-1.3,3-3v-4c0-3.9-3.1-7-7-7l0,0H9z"/>
<path d="M18,16h-4c-3.3,0-6-2.7-6-6V6c0-3.3,2.7-6,6-6h4c3.3,0,6,2.7,6,6v4C24,13.3,21.3,16,18,16z M14,2c-2.2,0-4,1.8-4,4v4
	c0,2.2,1.8,4,4,4h4c2.2,0,4-1.8,4-4V6c0-2.2-1.8-4-4-4H14z"/>
</svg>
