<?xml version="1.0" encoding="utf-8"?>
<!-- Generator: Adobe Illustrator 18.1.1, SVG Export Plug-In . SVG Version: 6.00 Build 0)  -->
<svg version="1.1" id="Layer_1" xmlns="http://www.w3.org/2000/svg" xmlns:xlink="http://www.w3.org/1999/xlink" x="0px" y="0px"
	 viewBox="0 0 34 32.3" enable-background="new 0 0 34 32.3" xml:space="preserve">
<path d="M28.2,11.3C28.2,11.2,28.2,11.2,28.2,11.3C28.2,5,23.1,0,17,0S5.8,5,5.8,11.2c0,0,0,0.1,0,0.1
	C2.3,13.2,0,16.9,0,21.1c0,6.2,5,11.2,11.2,11.2c2.1,0,4.1-0.6,5.8-1.6c1.7,1,3.7,1.6,5.8,1.6c6.2,0,11.2-5,11.2-11.2
	C34,16.9,31.6,13.2,28.2,11.3z M17,28.2c-1.9-1.5-3.1-3.8-3.4-6.3c1.1,0.3,2.2,0.5,3.3,0.5c1.2,0,2.3-0.2,3.4-0.5
	C20.2,24.4,18.9,26.7,17,28.2z M17,20.4c-1.2,0-2.3-0.2-3.3-0.6c0.3-2.4,1.5-4.4,3.3-5.9c1.8,1.4,3,3.5,3.3,5.8
	C19.3,20.2,18.1,20.4,17,20.4z M11.8,18.8c-2.1-1.4-3.6-3.7-4-6.3c1-0.4,2.2-0.6,3.3-0.6c1.5,0,2.8,0.3,4,0.9
	C13.5,14.4,12.3,16.5,11.8,18.8z M18.8,12.8c1.2-0.6,2.6-0.9,4-0.9c1.2,0,2.3,0.2,3.3,0.6c-0.4,2.6-1.8,4.9-3.9,6.3
	C21.7,16.5,20.5,14.4,18.8,12.8z M17,2c4.8,0,8.7,3.7,9.2,8.4c-1.1-0.3-2.2-0.5-3.3-0.5c-2.1,0-4.1,0.6-5.8,1.6
	c-1.7-1-3.7-1.6-5.8-1.6c-1.2,0-2.3,0.2-3.4,0.5C8.2,5.7,12.2,2,17,2z M11.2,30.3c-5.1,0-9.2-4.1-9.2-9.2c0-3.2,1.6-5.9,4-7.6
	c0.7,3.2,2.8,6,5.6,7.5c0,0,0,0,0,0.1c0,3.3,1.4,6.2,3.7,8.3C14,29.9,12.7,30.3,11.2,30.3z M22.8,30.3c-1.5,0-2.8-0.3-4-0.9
	c2.2-2.1,3.7-5,3.7-8.3c0,0,0-0.1,0-0.1c2.8-1.6,4.9-4.3,5.5-7.5c2.4,1.7,4.1,4.5,4.1,7.6C32,26.2,27.9,30.3,22.8,30.3z"/>
</svg>
