<?xml version="1.0" encoding="utf-8"?>
<!-- Generator: Adobe Illustrator 18.1.1, SVG Export Plug-In . SVG Version: 6.00 Build 0)  -->
<svg version="1.1" id="Layer_1" xmlns="http://www.w3.org/2000/svg" xmlns:xlink="http://www.w3.org/1999/xlink" x="0px" y="0px"
	 viewBox="15.2 687.5 564.8 154.4" enable-background="new 15.2 687.5 564.8 154.4" xml:space="preserve">
<g id="background" display="none">
	<rect x="-890.2" y="-148.1" display="inline" fill="#FFFFFF" width="2645.6" height="2649.7"/>
</g>
<path fill="#FFFFFF" d="M71.8,826.6c-11.7,0-21.1-4.1-28.4-12.4c-7.3-8.3-10.9-18.5-10.9-30.7c0-13.3,3.5-23.8,10.5-31.6
	c7-7.8,16.5-11.6,28.6-11.6c8,0,16.9,1.7,26.8,5.1l4.3-13.5c-9.9-3.8-20.4-5.8-31.4-5.8c-16.8,0-30.3,5.2-40.6,15.7
	c-10.3,10.4-15.5,24.3-15.5,41.7c0,17.3,5.1,31.2,15.4,41.7c10.2,10.5,24,15.7,41.1,15.7c11.4,0,21.8-2.2,31.4-6.5l-2.8-13.1
	C90.6,824.8,81.1,826.6,71.8,826.6z"/>
<polygon fill="#FFFFFF" points="183.3,690.1 138.4,690.1 138.4,704.2 166.9,704.2 166.9,838 211.6,838 211.6,823.9 183.3,823.9 "/>
<polygon fill="#FFFFFF" points="246.9,742.9 279,742.9 279,838 295.4,838 295.4,728.8 246.9,728.8 "/>
<path fill="#FFFFFF" d="M287.4,687.5c-2.9,0-5.4,1.1-7.6,3.4c-2.2,2.2-3.3,4.9-3.3,7.9c0,3,1.1,5.6,3.3,7.9s4.7,3.4,7.6,3.4
	c3.1,0,5.8-1.1,7.9-3.3c2.1-2.2,3.2-4.9,3.2-8.1c0-3.1-1.1-5.7-3.2-7.9C293.1,688.6,290.5,687.5,287.4,687.5z"/>
<polygon fill="#FFFFFF" points="447.2,728.8 426.4,728.8 375.1,774.9 375.1,690.1 358.7,690.1 358.7,838 375.1,838 375.1,792.9 
	385.8,783.7 432.1,838 453.6,838 397.4,773.4 "/>
<path fill="#FFFFFF" d="M563.6,742.9c-8.4-11.2-19.5-16.8-33.2-16.8c-12.5,0-22.6,5.3-30.1,15.8c-7.6,10.5-11.4,23.8-11.4,39.8
	c0,17.1,3.6,31.3,10.9,42.4c7.3,11.2,17.2,16.7,29.7,16.7c6.9,0,13.5-1.7,19.8-5.2c6.3-3.5,11.1-7.9,14.4-13.3V838H580V690.1h-16.4
	V742.9z M563.6,804.6c0,1-1.9,3.7-5.6,8.2c-3.7,4.5-7.7,7.8-11.8,10.1c-4.2,2.2-8.4,3.4-12.5,3.4c-8.6,0-15.4-4.1-20.3-12.3
	c-4.9-8.2-7.4-18.6-7.4-31.2c0-12.2,2.6-22.3,7.9-30.4c5.2-8,12.4-12,21.4-12c11,0,20.5,6.3,28.3,18.9L563.6,804.6L563.6,804.6z"/>
</svg>
